<mxfile host="app.diagrams.net" modified="2021-12-17T21:59:22.402Z" agent="5.0 (Windows NT 10.0; Win64; x64) AppleWebKit/537.36 (KHTML, like Gecko) Chrome/96.0.4664.93 Safari/537.36" etag="TvdVD_Q3OQeUbMHCpfyl" version="15.9.6" type="github">
  <diagram id="QE9k7aKrG-Y2UXw6C0WC" name="Page-1">
    <mxGraphModel dx="1422" dy="882" grid="1" gridSize="10" guides="1" tooltips="1" connect="1" arrows="1" fold="1" page="1" pageScale="1" pageWidth="850" pageHeight="1100" math="0" shadow="0">
      <root>
        <mxCell id="0" />
        <mxCell id="1" parent="0" />
        <mxCell id="ht9Vzc1wnYo_WJe_qzni-2" value="" style="rounded=0;whiteSpace=wrap;html=1;" vertex="1" parent="1">
          <mxGeometry x="480" y="80" width="330" height="530" as="geometry" />
        </mxCell>
        <mxCell id="ht9Vzc1wnYo_WJe_qzni-21" style="edgeStyle=orthogonalEdgeStyle;rounded=0;orthogonalLoop=1;jettySize=auto;html=1;startArrow=classic;startFill=1;" edge="1" parent="1" source="ht9Vzc1wnYo_WJe_qzni-1" target="ht9Vzc1wnYo_WJe_qzni-13">
          <mxGeometry relative="1" as="geometry">
            <Array as="points">
              <mxPoint x="215" y="520" />
            </Array>
          </mxGeometry>
        </mxCell>
        <mxCell id="ht9Vzc1wnYo_WJe_qzni-1" value="" style="rounded=0;whiteSpace=wrap;html=1;" vertex="1" parent="1">
          <mxGeometry x="120" y="80" width="190" height="320" as="geometry" />
        </mxCell>
        <mxCell id="ht9Vzc1wnYo_WJe_qzni-15" style="edgeStyle=orthogonalEdgeStyle;rounded=0;orthogonalLoop=1;jettySize=auto;html=1;strokeWidth=3;startArrow=classic;startFill=1;" edge="1" parent="1" source="ht9Vzc1wnYo_WJe_qzni-3" target="ht9Vzc1wnYo_WJe_qzni-10">
          <mxGeometry relative="1" as="geometry">
            <Array as="points">
              <mxPoint x="320" y="151" />
              <mxPoint x="320" y="151" />
            </Array>
          </mxGeometry>
        </mxCell>
        <mxCell id="ht9Vzc1wnYo_WJe_qzni-17" style="edgeStyle=orthogonalEdgeStyle;rounded=0;orthogonalLoop=1;jettySize=auto;html=1;startArrow=classic;startFill=1;" edge="1" parent="1" source="ht9Vzc1wnYo_WJe_qzni-3" target="ht9Vzc1wnYo_WJe_qzni-6">
          <mxGeometry relative="1" as="geometry" />
        </mxCell>
        <mxCell id="ht9Vzc1wnYo_WJe_qzni-26" style="edgeStyle=orthogonalEdgeStyle;rounded=0;jumpStyle=none;orthogonalLoop=1;jettySize=auto;html=1;startArrow=classic;startFill=1;sourcePerimeterSpacing=6;targetPerimeterSpacing=6;strokeWidth=3;" edge="1" parent="1" source="ht9Vzc1wnYo_WJe_qzni-3">
          <mxGeometry relative="1" as="geometry">
            <mxPoint x="640" y="470" as="targetPoint" />
            <Array as="points">
              <mxPoint x="390" y="190" />
              <mxPoint x="390" y="470" />
              <mxPoint x="640" y="470" />
            </Array>
          </mxGeometry>
        </mxCell>
        <mxCell id="ht9Vzc1wnYo_WJe_qzni-3" value="Firebase SDK&lt;br&gt;Listeners/queries" style="shape=image;html=1;verticalLabelPosition=top;verticalAlign=bottom;imageAspect=0;image=https://www.gstatic.com/devrel-devsite/prod/v84e6f6a61298bbae5bb110c196e834c7f21fe3fb34e722925433ddb936d280c9/firebase/images/touchicon-180.png;labelPosition=center;align=center;" vertex="1" parent="1">
          <mxGeometry x="185" y="130" width="60" height="60" as="geometry" />
        </mxCell>
        <mxCell id="ht9Vzc1wnYo_WJe_qzni-4" value="Front end client" style="text;strokeColor=none;fillColor=none;html=1;fontSize=24;fontStyle=1;verticalAlign=middle;align=center;" vertex="1" parent="1">
          <mxGeometry x="165" y="40" width="100" height="40" as="geometry" />
        </mxCell>
        <mxCell id="ht9Vzc1wnYo_WJe_qzni-6" value="UI Elements" style="shape=image;html=1;verticalLabelPosition=bottom;verticalAlign=top;imageAspect=0;image=https://upload.wikimedia.org/wikipedia/commons/thumb/a/a7/React-icon.svg/1200px-React-icon.svg.png;" vertex="1" parent="1">
          <mxGeometry x="172.5" y="280" width="85" height="60" as="geometry" />
        </mxCell>
        <mxCell id="ht9Vzc1wnYo_WJe_qzni-8" value="" style="ellipse;whiteSpace=wrap;html=1;" vertex="1" parent="1">
          <mxGeometry x="150" y="460" width="250" height="80" as="geometry" />
        </mxCell>
        <mxCell id="ht9Vzc1wnYo_WJe_qzni-9" value="API, HTTPS, Requests" style="text;html=1;strokeColor=none;fillColor=none;align=center;verticalAlign=middle;whiteSpace=wrap;rounded=0;" vertex="1" parent="1">
          <mxGeometry x="212.5" y="485" width="125" height="30" as="geometry" />
        </mxCell>
        <mxCell id="ht9Vzc1wnYo_WJe_qzni-10" value="Google auth provider" style="shape=image;html=1;verticalLabelPosition=bottom;verticalAlign=top;imageAspect=0;image=https://miro.medium.com/max/401/1*gyY2rWWROFNuJu04e_dA8w.png;" vertex="1" parent="1">
          <mxGeometry x="550" y="80" width="190" height="142.5" as="geometry" />
        </mxCell>
        <mxCell id="ht9Vzc1wnYo_WJe_qzni-22" style="edgeStyle=orthogonalEdgeStyle;rounded=0;orthogonalLoop=1;jettySize=auto;html=1;entryX=1;entryY=0.75;entryDx=0;entryDy=0;strokeWidth=3;jumpStyle=none;targetPerimeterSpacing=6;sourcePerimeterSpacing=6;startArrow=classic;startFill=1;" edge="1" parent="1" source="ht9Vzc1wnYo_WJe_qzni-11" target="ht9Vzc1wnYo_WJe_qzni-3">
          <mxGeometry relative="1" as="geometry">
            <Array as="points">
              <mxPoint x="420" y="290" />
              <mxPoint x="420" y="175" />
            </Array>
          </mxGeometry>
        </mxCell>
        <mxCell id="ht9Vzc1wnYo_WJe_qzni-24" style="edgeStyle=orthogonalEdgeStyle;rounded=0;jumpStyle=none;orthogonalLoop=1;jettySize=auto;html=1;startArrow=classic;startFill=1;sourcePerimeterSpacing=6;targetPerimeterSpacing=6;strokeWidth=3;shape=flexArrow;" edge="1" parent="1" source="ht9Vzc1wnYo_WJe_qzni-11" target="ht9Vzc1wnYo_WJe_qzni-13">
          <mxGeometry relative="1" as="geometry">
            <mxPoint x="670" y="400" as="sourcePoint" />
            <Array as="points">
              <mxPoint x="740" y="490" />
            </Array>
          </mxGeometry>
        </mxCell>
        <mxCell id="ht9Vzc1wnYo_WJe_qzni-11" value="Collections &amp;amp; security rules" style="shape=image;html=1;verticalLabelPosition=bottom;verticalAlign=top;imageAspect=0;image=https://miro.medium.com/max/1400/1*a2Da_CQHUsSKTCTRI2tYhQ.png;" vertex="1" parent="1">
          <mxGeometry x="550" y="260" width="195" height="60" as="geometry" />
        </mxCell>
        <mxCell id="ht9Vzc1wnYo_WJe_qzni-25" style="edgeStyle=orthogonalEdgeStyle;rounded=0;jumpStyle=none;orthogonalLoop=1;jettySize=auto;html=1;startArrow=none;startFill=0;sourcePerimeterSpacing=6;targetPerimeterSpacing=6;strokeWidth=3;exitX=1;exitY=0.5;exitDx=0;exitDy=0;" edge="1" parent="1" source="ht9Vzc1wnYo_WJe_qzni-12" target="ht9Vzc1wnYo_WJe_qzni-13">
          <mxGeometry relative="1" as="geometry">
            <Array as="points">
              <mxPoint x="670" y="400" />
            </Array>
          </mxGeometry>
        </mxCell>
        <mxCell id="ht9Vzc1wnYo_WJe_qzni-12" value="Cloud Scheduler" style="shape=image;html=1;verticalLabelPosition=bottom;verticalAlign=top;imageAspect=0;image=https://storage.googleapis.com/gweb-cloudblog-publish/images/cloud-scheduler-512-color.max-600x600.png;" vertex="1" parent="1">
          <mxGeometry x="570" y="370" width="60" height="60" as="geometry" />
        </mxCell>
        <mxCell id="ht9Vzc1wnYo_WJe_qzni-13" value="Cloud functions&lt;br&gt;Backend code" style="shape=image;html=1;verticalLabelPosition=bottom;verticalAlign=top;imageAspect=0;image=https://blog.telexarsoftware.com/wp-content/uploads/2020/01/Google-Cloud-Functions-01.png;" vertex="1" parent="1">
          <mxGeometry x="640" y="460" width="60" height="60" as="geometry" />
        </mxCell>
        <mxCell id="ht9Vzc1wnYo_WJe_qzni-28" value="Firebase" style="text;strokeColor=none;fillColor=none;html=1;fontSize=24;fontStyle=1;verticalAlign=middle;align=center;" vertex="1" parent="1">
          <mxGeometry x="610" y="40" width="100" height="40" as="geometry" />
        </mxCell>
      </root>
    </mxGraphModel>
  </diagram>
</mxfile>
